{
	"asset":{
		"generator":"Khronos glTF Blender I/O v3.5.30",
		"version":"2.0"
	},
	"extensionsUsed":[
		"KHR_materials_specular",
		"KHR_materials_ior"
	],
	"scene":0,
	"scenes":[
		{
			"name":"Scene",
			"nodes":[
				0
			]
		}
	],
	"nodes":[
		{
			"mesh":0,
			"name":"kraisler",
			"rotation":[
				0.7071068286895752,
				0,
				0,
				0.7071068286895752
			]
		}
	],
	"materials":[
		{
			"doubleSided":true,
			"extensions":{
				"KHR_materials_specular":{
					"specularColorFactor":[
						0.474271529955476,
						0.474271529955476,
						0.474271529955476
					]
				},
				"KHR_materials_ior":{
					"ior":1.4500000476837158
				}
			},
			"name":"fence",
			"pbrMetallicRoughness":{
				"baseColorTexture":{
					"index":0
				},
				"metallicFactor":0,
				"roughnessFactor":0.858578622341156
			}
		},
		{
			"doubleSided":true,
			"extensions":{
				"KHR_materials_specular":{
					"specularColorFactor":[
						0.474271529955476,
						0.474271529955476,
						0.474271529955476
					]
				},
				"KHR_materials_ior":{
					"ior":1.4500000476837158
				}
			},
			"name":"herb",
			"pbrMetallicRoughness":{
				"baseColorTexture":{
					"index":1
				},
				"metallicFactor":0,
				"roughnessFactor":0.858578622341156
			}
		},
		{
			"doubleSided":true,
			"extensions":{
				"KHR_materials_specular":{
					"specularColorFactor":[
						0.474271529955476,
						0.474271529955476,
						0.474271529955476
					]
				},
				"KHR_materials_ior":{
					"ior":1.4500000476837158
				}
			},
			"name":"kraisler",
			"pbrMetallicRoughness":{
				"baseColorTexture":{
					"index":2
				},
				"metallicFactor":0,
				"roughnessFactor":0.858578622341156
			}
		}
	],
	"meshes":[
		{
			"name":"kraisler",
			"primitives":[
				{
					"attributes":{
						"POSITION":0,
						"TEXCOORD_0":1,
						"NORMAL":2
					},
					"indices":3,
					"material":0
				},
				{
					"attributes":{
						"POSITION":4,
						"TEXCOORD_0":5,
						"NORMAL":6
					},
					"indices":7,
					"material":1
				},
				{
					"attributes":{
						"POSITION":8,
						"TEXCOORD_0":9,
						"NORMAL":10
					},
					"indices":11,
					"material":2
				}
			]
		}
	],
	"textures":[
		{
			"sampler":0,
			"source":0
		},
		{
			"sampler":0,
			"source":1
		},
		{
			"sampler":0,
			"source":2
		}
	],
	"images":[
		{
			"bufferView":4,
			"mimeType":"image/png",
			"name":"fence_Base_Color"
		},
		{
			"bufferView":9,
			"mimeType":"image/png",
			"name":"herb_Base_Color"
		},
		{
			"bufferView":14,
			"mimeType":"image/png",
			"name":"kraisler_Base_Color"
		}
	],
	"accessors":[
		{
			"bufferView":0,
			"componentType":5126,
			"count":66,
			"max":[
				13.470704078674316,
				1.2074120044708252,
				-0.679265022277832
			],
			"min":[
				-7.168982982635498,
				-1.1830849647521973,
				-1.4452489614486694
			],
			"type":"VEC3"
		},
		{
			"bufferView":1,
			"componentType":5126,
			"count":66,
			"type":"VEC2"
		},
		{
			"bufferView":2,
			"componentType":5126,
			"count":66,
			"type":"VEC3"
		},
		{
			"bufferView":3,
			"componentType":5123,
			"count":162,
			"type":"SCALAR"
		},
		{
			"bufferView":5,
			"componentType":5126,
			"count":1650,
			"max":[
				5.728938102722168,
				0.6737260222434998,
				15.224815368652344
			],
			"min":[
				-0.6311190128326416,
				-0.6812989711761475,
				-5.208530902862549
			],
			"type":"VEC3"
		},
		{
			"bufferView":6,
			"componentType":5126,
			"count":1650,
			"type":"VEC2"
		},
		{
			"bufferView":7,
			"componentType":5126,
			"count":1650,
			"type":"VEC3"
		},
		{
			"bufferView":8,
			"componentType":5123,
			"count":5514,
			"type":"SCALAR"
		},
		{
			"bufferView":10,
			"componentType":5126,
			"count":43950,
			"max":[
				13.579536437988281,
				1.260633945465088,
				0.7799019813537598
			],
			"min":[
				-7.251521110534668,
				-1.2446500062942505,
				-5.900681972503662
			],
			"type":"VEC3"
		},
		{
			"bufferView":11,
			"componentType":5126,
			"count":43950,
			"type":"VEC2"
		},
		{
			"bufferView":12,
			"componentType":5126,
			"count":43950,
			"type":"VEC3"
		},
		{
			"bufferView":13,
			"componentType":5123,
			"count":102978,
			"type":"SCALAR"
		}
	],
	"bufferViews":[
		{
			"buffer":0,
			"byteLength":792,
			"byteOffset":0,
			"target":34962
		},
		{
			"buffer":0,
			"byteLength":528,
			"byteOffset":792,
			"target":34962
		},
		{
			"buffer":0,
			"byteLength":792,
			"byteOffset":1320,
			"target":34962
		},
		{
			"buffer":0,
			"byteLength":324,
			"byteOffset":2112,
			"target":34963
		},
		{
			"buffer":0,
			"byteLength":58792,
			"byteOffset":2436
		},
		{
			"buffer":0,
			"byteLength":19800,
			"byteOffset":61228,
			"target":34962
		},
		{
			"buffer":0,
			"byteLength":13200,
			"byteOffset":81028,
			"target":34962
		},
		{
			"buffer":0,
			"byteLength":19800,
			"byteOffset":94228,
			"target":34962
		},
		{
			"buffer":0,
			"byteLength":11028,
			"byteOffset":114028,
			"target":34963
		},
		{
			"buffer":0,
			"byteLength":204906,
			"byteOffset":125056
		},
		{
			"buffer":0,
			"byteLength":527400,
			"byteOffset":329964,
			"target":34962
		},
		{
			"buffer":0,
			"byteLength":351600,
			"byteOffset":857364,
			"target":34962
		},
		{
			"buffer":0,
			"byteLength":527400,
			"byteOffset":1208964,
			"target":34962
		},
		{
			"buffer":0,
			"byteLength":205956,
			"byteOffset":1736364,
			"target":34963
		},
		{
			"buffer":0,
			"byteLength":395052,
			"byteOffset":1942320
		}
	],
	"samplers":[
		{
			"magFilter":9729,
			"minFilter":9987
		}
	],
	"buffers":[
		{
			"byteLength":2337372,
			"uri":"data:application/octet-stream;base64,"
		}
	]
}
